<?xml version="1.0" encoding="UTF-8"?>
<svg width="238" height="238" version="1.1" viewBox="0 0 55.033 62.971" xmlns="http://www.w3.org/2000/svg">

<rect x="0" y="0" width="238" height="238" stroke="none" fill="white"/>

   <path d="m24.292 4.5 4.3301 2.5 4.3301-2.5-4.3301-2.5z" fill="#08a" stroke="#000" stroke-width=".26458px"/>
   <path d="m24.292 4.5v35l4.3301 2.5 4.3301-2.5v-35l-4.3301 2.5z" fill="#006680" stroke="#000" stroke-width=".26458px"/>
   <path d="m28.622 7v35" fill="none" stroke="#000" stroke-width=".26458px"/>

    <path d="m15.631 9.5 4.3301 2.5-12.99 7.5-4.3301-2.5z" fill="#08a" stroke="#000" stroke-width=".26458px"/>
    <path d="m37.282 12 4.3301-2.5 12.99 7.5-4.3301 2.5z" fill="#08a" stroke="#000" stroke-width=".26458px"/>
    <path d="m28.622 52 17.32-10 4.3301 2.5-21.651 12.5-21.651-12.5 4.3301-2.5z" fill="#08a" stroke="#000" stroke-width=".26458px"/>

    <path d="m19.962 12v5l-8.6603 5v20l-4.3301 2.5v-25z" fill="#006680" stroke="#000" stroke-width=".26458px"/>
    <path d="m2.641 17 4.3301 2.5v25l21.651 12.5v5l-25.981-15v-30l4.3301 2.5" fill="#006680" stroke="#000" stroke-width=".26458px"/>
    <path d="m37.282 12v5l8.6602 5v20l4.3301 2.5v-25z" fill="#006680" stroke="#000" stroke-width=".26458px"/>
    <path d="m28.622 57v5l25.981-15v-30l-4.3301 2.5v25z" fill="#006680" stroke="#000" stroke-width=".26458px"/>
</svg>
