<?xml version="1.0" encoding="UTF-8"?>
<!-- Created with Inkscape (http://www.inkscape.org/) -->
<svg width="172.17" height="190.3" version="1.1" viewBox="0 0 45.552 50.35" xmlns="http://www.w3.org/2000/svg" xmlns:cc="http://creativecommons.org/ns#" xmlns:dc="http://purl.org/dc/elements/1.1/" xmlns:rdf="http://www.w3.org/1999/02/22-rdf-syntax-ns#">
 <metadata>
  <rdf:RDF>
   <cc:Work rdf:about="">
    <dc:format>image/svg+xml</dc:format>
    <dc:type rdf:resource="http://purl.org/dc/dcmitype/StillImage"/>
    <dc:title/>
   </cc:Work>
  </rdf:RDF>
 </metadata>
 <g transform="translate(-83.057 -69.23)">
  <g transform="matrix(.21626 0 0 .21626 145.16 123.12)" fill="none" stroke="#00cfee" stroke-width="2.7943">
   <g transform="translate(8.6603 -175)">
    <path d="m-242.49 107 25.981-15"/>
    <path d="m-216.51 92v-30l-25.981 15-25.981-15 25.981-15 25.981 15"/>
    <path d="m-268.47 62v-60"/>
    <path d="m-242.49 107-51.962-30"/>
    <path d="m-242.49 77v30"/>
    <path d="m-294.45 77v-90"/>
    <path d="m-294.45-13 25.981 15"/>
    <path d="m-242.49 47v-30"/>
    <path d="m-268.47 1.9999 77.942-45 77.942 45"/>
    <path d="m-294.45-13 103.92-60"/>
    <path d="m-242.49 17 51.962-30"/>
    <path d="m-190.53-43v30"/>
    <path d="m-190.53-13 51.962 30"/>
    <path d="m-190.53-73 103.92 60"/>
    <path d="m-112.58 1.9999 25.981-15"/>
    <path d="m-138.56 17v30"/>
    <path d="m-138.56 47-25.981 15 25.981 15 25.981-15z"/>
    <path d="m-112.58 1.9999v60"/>
    <path d="m-164.54 62v30"/>
    <path d="m-164.54 92 25.981 15 51.962-30"/>
    <path d="m-86.603-13v90"/>
    <path d="m-138.56 77v30"/>
   </g>
   <path d="m-207.85-33 25.981 15 25.981-15v-120l-25.981-15-25.981 15z"/>
   <path d="m-207.85-153 25.981 15 25.981-15"/>
   <path d="m-181.87-138v120"/>
  </g>
 </g>
</svg>
