<?xml version="1.0" encoding="UTF-8"?>
<!-- Created with Inkscape (http://www.inkscape.org/) -->
<svg width="69.516" height="62.271" version="1.1" viewBox="0 0 18.393 16.476" xmlns="http://www.w3.org/2000/svg" xmlns:cc="http://creativecommons.org/ns#" xmlns:dc="http://purl.org/dc/elements/1.1/" xmlns:rdf="http://www.w3.org/1999/02/22-rdf-syntax-ns#">
 <metadata>
  <rdf:RDF>
   <cc:Work rdf:about="">
    <dc:format>image/svg+xml</dc:format>
    <dc:type rdf:resource="http://purl.org/dc/dcmitype/StillImage"/>
    <dc:title/>
   </cc:Work>
  </rdf:RDF>
 </metadata>
 <g transform="translate(-85.298 -64.244)">
  <g fill="none" stroke="#000">
   <rect x="85.535" y="64.482" width="17.918" height="13.438" ry="1.1199" stroke-linecap="round" stroke-linejoin="round" stroke-width=".47512"/>
   <rect x="87.111" y="66.058" width="14.766" height="8.943" ry=".55894" stroke-linecap="round" stroke-linejoin="round" stroke-width=".35185"/>
   <g>
    <path d="m94.494 77.92v2.2397" stroke-width="2.2397"/>
    <path d="m90.015 80.16h8.9588" stroke-width="1.1199"/>
    <path d="m87.14 67.534h14.645" stroke-width=".2278"/>
   </g>
  </g>
  <g stroke="#000" stroke-linecap="round" stroke-linejoin="round" stroke-width=".049544">
   <circle cx="88.348" cy="66.788" r=".2202"/>
   <circle cx="89.281" cy="66.756" r=".2202"/>
   <circle cx="90.261" cy="66.756" r=".2202"/>
  </g>
  <text x="90.142296" y="68.866371" fill="#000000" font-family="sans-serif" font-size="1.5622px" font-weight="bold" letter-spacing="0px" stroke-width=".058581" word-spacing="0px" style="line-height:1" xml:space="preserve"><tspan x="90.142296" y="68.866371" style="line-height:1">&lt;-&gt;</tspan><tspan x="90.142296" y="70.428528" style="line-height:1">&lt;/&gt;</tspan></text>
  <path d="m89.483 67.418v7.6155" fill="none" stroke="#000" stroke-width=".2929"/>
  <g stroke="#000" stroke-linecap="round" stroke-linejoin="round" stroke-width=".049544">
   <circle cx="88.386" cy="68.631" r=".2202"/>
   <circle cx="88.386" cy="69.685" r=".2202"/>
   <circle cx="88.386" cy="70.74" r=".2202"/>
   <circle cx="88.386" cy="71.794" r=".2202"/>
   <circle cx="88.386" cy="72.849" r=".2202"/>
   <circle cx="88.386" cy="73.903" r=".2202"/>
  </g>
  <g fill="none" stroke="#000" stroke-width=".2929">
   <path d="m90.421 71.636h9.9587" stroke-dasharray="2.34323084, 0.29290386"/>
   <path d="m91.592 72.807h9.9587" stroke-dasharray="1.75742313, 1.75742313"/>
   <path d="m90.538 73.979h9.9587" stroke-dasharray="7.02969253, 0.29290386"/>
  </g>
  <text x="96.123642" y="69.701057" fill="#000000" font-family="sans-serif" font-size="1.2497px" letter-spacing="0px" stroke-width=".058581" word-spacing="0px" style="line-height:1.25" xml:space="preserve"><tspan x="96.123642" y="69.701057" font-family="sans-serif" font-size="1.5622px" font-weight="bold" stroke-width=".058581">JS</tspan></text>
 </g>
</svg>
